<svg width="195" height="312" viewBox="0 0 195 312" fill="none" xmlns="http://www.w3.org/2000/svg">
<path d="M47.7014 301.587C45.6079 284.292 43.5144 267.017 41.4209 249.721C39.8561 236.845 19.4075 236.676 20.9934 249.721C23.0869 267.017 25.1804 284.292 27.2739 301.587C28.8388 314.485 49.2874 314.633 47.7014 301.587Z" fill="#FDB03F"/>
<path d="M55.3991 263.74C40.2794 266.214 25.0118 266.975 9.78634 268.434C-3.19754 269.681 -3.32442 290.106 9.78635 288.859C26.8515 287.231 43.8955 286.195 60.8337 283.446C73.7753 281.332 68.2984 261.647 55.3991 263.74Z" fill="#FDB03F"/>
<path d="M111.907 150.71C109.623 156.229 105.859 160.458 101.334 164.242C97.4637 167.477 95.2644 168.513 89.9778 168.746C79.0028 169.232 67.8798 166.061 58.9137 159.696C45.7818 150.372 39.7128 135.825 37.1117 120.453C32.6921 94.3193 34.8068 66.4093 47.3043 43.0241C59.8019 19.6389 83.6762 1.58192 110.152 0.101839C120.873 -0.490191 131.657 1.53963 141.786 5.1341C167.056 14.0991 189.577 34.7356 194.23 61.1233C195.52 68.4814 195.329 76.4315 191.755 82.9861C178.835 106.794 136.162 95.3342 121.359 118.043C115.163 127.6 116.284 140.181 111.907 150.71Z" fill="#C9E7F2" fill-opacity="0.5"/>
<path d="M82.577 95.8839C85.5163 88.1875 81.6677 79.5608 73.9915 76.6218C66.2943 73.6828 57.6666 77.531 54.7272 85.2062C51.7879 92.9026 55.6365 101.529 63.3127 104.468C70.9888 107.429 79.6165 103.58 82.577 95.8839Z" fill="#002C44"/>
<path d="M105.839 50.0438C108.778 42.3474 104.93 33.7207 97.2533 30.7817C89.556 27.8427 80.9283 31.6909 77.989 39.3661C75.0496 47.0625 78.8983 55.6893 86.5744 58.6283C94.2717 61.5884 102.878 57.7402 105.839 50.0438Z" fill="#FF7765"/>
<path d="M151.493 46.9991C154.432 39.3028 150.584 30.676 142.908 27.737C135.21 24.798 126.583 28.6462 123.643 36.3215C120.704 44.0179 124.553 52.6446 132.229 55.5836C139.926 58.5437 148.554 54.6955 151.493 46.9991Z" fill="#01B8C1"/>
</svg>
