<svg width="349" height="379" viewBox="0 0 349 379" fill="none" xmlns="http://www.w3.org/2000/svg">
<path d="M187.888 45.1593L193.762 113.148L205.679 71.0842L303.716 61.8494L187.888 45.1593Z" fill="#002C44"/>
<path d="M165.539 23.8818C165.539 23.8818 193.702 44.754 193.682 52.5921L308.958 68.0563C308.93 68.0327 241.162 26.0837 165.539 23.8818Z" fill="#F4D158"/>
<path d="M187.553 114.311C187.499 116.321 222.457 104.318 222.457 104.318L197.855 74.0236C197.855 74.0236 188.071 96.7071 187.553 114.311Z" fill="#01B8C1"/>
<path d="M202.192 64.7433C202.192 64.7433 235.602 103.189 233.914 128.313L299.859 56.155C299.859 56.155 210.671 61.0936 202.192 64.7433Z" fill="#FDB03F"/>
<path d="M-55.2822 320.025C-47.9522 349.17 -16.7384 370.353 13.0219 365.905C42.7822 361.457 66.56 331.585 63.6686 301.667C62.9465 294.23 60.5933 286.6 55.2332 281.386C49.8731 276.172 40.9933 274.117 34.6796 278.15C27.5638 282.685 26.3617 293.415 30.6698 300.66C34.9886 307.904 43.3632 311.915 51.7042 313.21C69.3777 315.954 88.3086 307.348 97.8401 292.221C108.564 275.189 107.052 253.599 108.103 233.517C110.392 189.44 115.525 120.824 179.69 112.708" stroke="#01B8C1" stroke-width="3" stroke-miterlimit="10" stroke-linecap="round" stroke-linejoin="round" stroke-dasharray="8 8"/>
</svg>
